<svg width="40" height="36" viewBox="0 0 40 36" fill="none" xmlns="http://www.w3.org/2000/svg">
<path d="M13.9273 7.51677L15.7734 8.72396C15.9851 8.86241 16.1427 9.05763 16.2235 9.28163C16.3044 9.50564 16.3043 9.74692 16.2234 9.97091L15.5188 11.9242C15.4379 12.1482 15.4379 12.3895 15.5188 12.6135C15.5997 12.8374 15.7573 13.0326 15.969 13.171C16.1807 13.3095 16.4356 13.384 16.6973 13.384C16.959 13.384 17.2139 13.3095 17.4256 13.1711L19.2719 11.9639C19.4836 11.8255 19.7386 11.7509 20.0003 11.7509C20.2619 11.7509 20.5169 11.8255 20.7286 11.9639L22.5749 13.1711C22.7866 13.3095 23.0415 13.384 23.3032 13.384C23.5649 13.384 23.8198 13.3095 24.0315 13.171C24.2432 13.0326 24.4008 12.8374 24.4817 12.6135C24.5626 12.3895 24.5626 12.1482 24.4818 11.9242L23.7763 9.97091C23.6954 9.74692 23.6953 9.50564 23.7762 9.28164C23.857 9.05764 24.0146 8.86242 24.2263 8.72396L26.0724 7.51677C26.2841 7.37833 26.4417 7.18312 26.5226 6.95913C26.6034 6.73513 26.6034 6.49385 26.5226 6.26986C26.4417 6.04587 26.2841 5.85067 26.0724 5.71224C25.8607 5.57381 25.6057 5.49925 25.344 5.49925H23.0625C22.8008 5.49923 22.5459 5.42465 22.3341 5.28622C22.1224 5.14779 21.9648 4.95261 21.8839 4.72863L21.1786 2.77529C21.0977 2.5513 20.9401 2.35609 20.7284 2.21764C20.5167 2.0792 20.2618 2.00464 20.0001 2.00464C19.7384 2.00464 19.4834 2.0792 19.2717 2.21764C19.06 2.35609 18.9024 2.5513 18.8216 2.77529L18.1163 4.72863C18.0354 4.95265 17.8778 5.14788 17.666 5.28631C17.4543 5.42475 17.1992 5.49929 16.9375 5.49925H14.6558C14.3941 5.49925 14.1391 5.57381 13.9274 5.71224C13.7157 5.85067 13.5581 6.04587 13.4772 6.26986C13.3963 6.49385 13.3963 6.73513 13.4772 6.95913C13.558 7.18312 13.7156 7.37833 13.9273 7.51677Z" fill="white"/>
<path d="M23.3992 24.828C23.2674 24.777 23.1551 24.6923 23.0763 24.5845C22.9974 24.4767 22.9554 24.3504 22.9554 24.2213C22.9545 24.129 22.9746 24.0376 23.0146 23.9526C23.0546 23.8677 23.1135 23.791 23.1878 23.7274C23.2331 23.6886 23.2765 23.6503 23.309 23.6195C23.5388 23.4017 23.7416 23.162 23.9137 22.9047C24.3664 22.2248 24.5908 21.4415 24.5598 20.6494C24.5288 19.8573 24.2439 19.0902 23.7392 18.4406C23.2346 17.791 22.5319 17.2867 21.7159 16.9886C20.8999 16.6905 20.0055 16.6112 19.1406 16.7604C18.2592 16.8993 17.4446 17.2737 16.8028 17.8349C16.161 18.396 15.7216 19.118 15.5418 19.9069C15.3756 20.5862 15.4039 21.2923 15.624 21.9591C15.8441 22.6258 16.2487 23.2314 16.8 23.7188C16.8748 23.7827 16.9347 23.8593 16.9761 23.9442C17.0176 24.0292 17.0397 24.1207 17.0414 24.2135V24.2169C17.0427 24.3471 17.0013 24.4747 16.9224 24.5837C16.8434 24.6928 16.7304 24.7785 16.5976 24.83C14.7796 25.5078 13.3298 26.8008 12.5601 28.4308C12.0191 29.5471 11.7477 30.7541 11.7639 31.9719V32.8494C11.7639 33.0376 11.8051 33.2239 11.8851 33.3978C11.9651 33.5716 12.0824 33.7296 12.2303 33.8626C12.3782 33.9957 12.5537 34.1012 12.7469 34.1732C12.9401 34.2451 13.1472 34.2821 13.3562 34.2821H26.6444C27.0665 34.2821 27.4713 34.1311 27.7698 33.8625C28.0683 33.5938 28.236 33.2294 28.236 32.8495V31.9632C28.2522 30.7459 27.9803 29.5394 27.4384 28.4239C26.6674 26.7954 25.217 25.5041 23.3992 24.828Z" fill="white"/>
<path d="M38.0513 26.4452C37.2804 24.8167 35.8302 23.5255 34.0125 22.8493C33.8808 22.7982 33.7685 22.7135 33.6897 22.6057C33.6108 22.4979 33.5688 22.3716 33.5687 22.2426C33.5678 22.1503 33.588 22.0589 33.628 21.9739C33.668 21.8889 33.7269 21.8123 33.8012 21.7487C33.8465 21.7098 33.89 21.6715 33.9223 21.6406C34.1522 21.423 34.355 21.1835 34.5271 20.9263C34.9798 20.2464 35.2042 19.4631 35.1733 18.671C35.1424 17.8789 34.8575 17.1117 34.3528 16.4621C33.8482 15.8125 33.1455 15.3082 32.3295 15.0101C31.5134 14.7119 30.619 14.6327 29.7541 14.782C28.8726 14.9208 28.058 15.2952 27.4162 15.8563C26.7744 16.4175 26.335 17.1395 26.1553 17.9284C25.9891 18.6077 26.0174 19.3138 26.2374 19.9806C26.4575 20.6473 26.8621 21.2529 27.4134 21.7404C27.4882 21.8042 27.5481 21.8808 27.5895 21.9657C27.631 22.0506 27.6532 22.1422 27.6547 22.2349V22.2385C27.6561 22.3686 27.6147 22.4963 27.5358 22.6054C27.4568 22.7144 27.3438 22.8001 27.211 22.8516C26.4849 23.1193 25.8108 23.4893 25.2139 23.9477C26.8885 24.8413 28.2054 26.1894 28.9757 27.7985C29.6185 29.1101 29.9416 30.5304 29.9232 31.9639V32.3038H37.2572C37.6794 32.3038 38.0842 32.1529 38.3827 31.8842C38.6812 31.6156 38.849 31.2512 38.849 30.8713V29.9845C38.8652 28.7671 38.5932 27.5606 38.0513 26.4452Z" fill="white"/>
<path d="M14.7875 23.9473C14.1895 23.4878 13.5138 23.1171 12.7859 22.8493C12.6541 22.7982 12.5419 22.7136 12.463 22.6057C12.3842 22.4979 12.3421 22.3717 12.3421 22.2426C12.3412 22.1503 12.3614 22.0588 12.4014 21.9739C12.4414 21.8889 12.5004 21.8123 12.5747 21.7487C12.6198 21.7098 12.6633 21.6715 12.6958 21.6406C12.9256 21.423 13.1283 21.1835 13.3004 20.9263C13.7531 20.2464 13.9776 19.4631 13.9467 18.671C13.9158 17.8789 13.6308 17.1117 13.1262 16.4621C12.6216 15.8125 11.9189 15.3082 11.1028 15.01C10.2868 14.7119 9.39237 14.6327 8.52743 14.782C7.64601 14.9208 6.83142 15.2952 6.18959 15.8564C5.54776 16.4175 5.10839 17.1395 4.92862 17.9284C4.76248 18.6077 4.79077 19.3138 5.01083 19.9806C5.23089 20.6473 5.63551 21.2529 6.18674 21.7404C6.26158 21.8042 6.32148 21.8808 6.36293 21.9657C6.40438 22.0506 6.42655 22.1422 6.42812 22.2349V22.2385C6.42948 22.3686 6.3881 22.4963 6.30915 22.6054C6.2302 22.7144 6.11722 22.8001 5.98437 22.8516C4.16633 23.5294 2.71653 24.8223 1.94687 26.4523C1.40578 27.5686 1.13433 28.7756 1.15049 29.9934V30.8713C1.15048 31.0594 1.19165 31.2457 1.27163 31.4195C1.35161 31.5933 1.46885 31.7512 1.61665 31.8842C1.76445 32.0173 1.93991 32.1228 2.13302 32.1948C2.32613 32.2667 2.5331 32.3038 2.74212 32.3038H10.0767V31.9723C10.0585 30.5389 10.3809 29.1186 11.0222 27.8065C11.7918 26.1939 13.1102 24.8426 14.7875 23.9473Z" fill="white"/>
</svg>
