<svg width="40" height="36" viewBox="0 0 40 36" fill="none" xmlns="http://www.w3.org/2000/svg">
<g clip-path="url(#clip0_283_543)">
<path d="M20 16.5C21.3185 16.5 22.6075 16.1481 23.7038 15.4888C24.8001 14.8295 25.6546 13.8925 26.1592 12.7961C26.6638 11.6997 26.7958 10.4933 26.5386 9.32946C26.2813 8.16557 25.6464 7.09648 24.714 6.25736C23.7817 5.41825 22.5938 4.8468 21.3006 4.61529C20.0074 4.38378 18.6669 4.5026 17.4488 4.95673C16.2306 5.41085 15.1894 6.17989 14.4569 7.16658C13.7243 8.15327 13.3333 9.31331 13.3333 10.5C13.3333 12.0913 14.0357 13.6174 15.2859 14.7426C16.5362 15.8679 18.2319 16.5 20 16.5Z" fill="#420B15"/>
<path d="M30 31.5C30.442 31.5 30.866 31.342 31.1785 31.0607C31.4911 30.7794 31.6667 30.3978 31.6667 30C31.6667 27.2152 30.4375 24.5445 28.2496 22.5754C26.0617 20.6062 23.0942 19.5 20 19.5C16.9058 19.5 13.9383 20.6062 11.7504 22.5754C9.56249 24.5445 8.33333 27.2152 8.33333 30C8.33333 30.3978 8.50892 30.7794 8.82148 31.0607C9.13404 31.342 9.55797 31.5 10 31.5H30Z" fill="#420B15"/>
</g>
<defs>
<clipPath id="clip0_283_543">
<rect width="40" height="36" fill="white"/>
</clipPath>
</defs>
</svg>
