<svg width="40" height="40" viewBox="0 0 40 40" fill="none" xmlns="http://www.w3.org/2000/svg">
<g clip-path="url(#clip0_283_20)">
<path d="M20 3.33337C16.7036 3.33337 13.4813 4.31086 10.7405 6.14221C7.99966 7.97357 5.86346 10.5765 4.60199 13.622C3.34053 16.6674 3.01048 20.0185 3.65357 23.2515C4.29665 26.4846 5.884 29.4543 8.21487 31.7852C10.5457 34.116 13.5155 35.7034 16.7485 36.3465C19.9815 36.9896 23.3326 36.6595 26.378 35.398C29.4235 34.1366 32.0265 32.0004 33.8578 29.2595C35.6892 26.5187 36.6667 23.2964 36.6667 20C36.6667 17.8113 36.2356 15.6441 35.398 13.622C34.5604 11.5999 33.3327 9.76257 31.7851 8.21493C30.2375 6.66728 28.4001 5.43963 26.378 4.60205C24.356 3.76447 22.1887 3.33337 20 3.33337ZM20 33.3334C17.3629 33.3334 14.785 32.5514 12.5924 31.0863C10.3997 29.6212 8.69076 27.5388 7.68159 25.1025C6.67243 22.6661 6.40838 19.9853 6.92285 17.3988C7.43732 14.8124 8.7072 12.4367 10.5719 10.572C12.4366 8.70725 14.8124 7.43737 17.3988 6.9229C19.9852 6.40843 22.6661 6.67248 25.1024 7.68165C27.5388 8.69082 29.6212 10.3998 31.0862 12.5924C32.5513 14.7851 33.3333 17.363 33.3333 20C33.3333 23.5363 31.9286 26.9276 29.4281 29.4281C26.9276 31.9286 23.5362 33.3334 20 33.3334Z" fill="#420B15"/>
<path d="M24.5 13.9833L18.2 22.3166L15.4833 18.8C15.3487 18.6271 15.1814 18.4824 14.9909 18.3741C14.8003 18.2659 14.5904 18.1962 14.3729 18.1692C14.1555 18.1421 13.9348 18.1581 13.7236 18.2163C13.5123 18.2745 13.3146 18.3737 13.1417 18.5083C12.9688 18.6429 12.8241 18.8103 12.7158 19.0008C12.6076 19.1913 12.538 19.4013 12.5109 19.6187C12.4838 19.8362 12.4998 20.0568 12.558 20.2681C12.6162 20.4793 12.7154 20.6771 12.85 20.85L16.9 26.0333C17.057 26.2319 17.2571 26.3922 17.4852 26.5019C17.7134 26.6117 17.9635 26.668 18.2167 26.6666C18.4712 26.666 18.7222 26.6071 18.9505 26.4944C19.1787 26.3818 19.3781 26.2183 19.5333 26.0166L27.15 16.0166C27.4197 15.663 27.5378 15.2168 27.4784 14.7761C27.419 14.3353 27.187 13.9363 26.8333 13.6666C26.4797 13.397 26.0335 13.2789 25.5928 13.3383C25.1521 13.3977 24.753 13.6297 24.4833 13.9833H24.5Z" fill="#420B15"/>
</g>
<defs>
<clipPath id="clip0_283_20">
<rect width="40" height="40" fill="white"/>
</clipPath>
</defs>
</svg>
