<svg width="44" height="44" viewBox="0 0 44 44" fill="none" xmlns="http://www.w3.org/2000/svg">
<path d="M41.4372 18.1979H40.4347V15.2957C40.4347 13.834 39.245 12.6443 37.7833 12.6443H35.9984V11.673C35.9984 10.2113 34.8087 9.02161 33.347 9.02161H31.3788C29.9171 9.02161 28.7274 10.2113 28.7274 11.673V18.1873H15.272V11.673C15.272 10.2113 14.0823 9.02161 12.6206 9.02161H10.6524C9.19066 9.02161 8.00096 10.2113 8.00096 11.673V13.4784H6.21673C4.75504 13.4784 3.56534 14.6681 3.56534 16.1298V18.5523H2.56218C1.14977 18.5516 0 19.7413 0 21.203V23.1507C0 24.6124 1.14977 25.8021 2.56218 25.8021H3.56472V28.7043C3.56472 30.166 4.75441 31.3557 6.21611 31.3557H8.00034V32.327C8.00034 33.7887 9.19003 34.9784 10.6517 34.9784H12.62C14.0817 34.9784 15.2714 33.7887 15.2714 32.327V25.4584H28.7267V32.327C28.7267 33.7887 29.9164 34.9784 31.3781 34.9784H33.3464C34.8081 34.9784 35.9978 33.7887 35.9978 32.327V30.5216H37.7826C39.2443 30.5216 40.434 29.3319 40.434 27.8702V25.4484H41.4366C42.8496 25.4484 43.9988 24.2587 43.9988 22.797V20.8493C44 19.3876 42.8502 18.1979 41.4372 18.1979ZM2.56218 24.2425C2.00944 24.2425 1.55964 23.7527 1.55964 23.1507V21.203C1.55964 20.601 2.00944 20.1113 2.56218 20.1113H3.56472V24.2425H2.56218ZM6.21673 29.796C5.61471 29.796 5.12498 29.3063 5.12498 28.7043V16.1292C5.12498 15.5272 5.61471 15.0375 6.21673 15.0375H8.00096V29.7954H6.21673V29.796ZM13.7124 32.327C13.7124 32.9291 13.2226 33.4188 12.6206 33.4188H10.6524C10.0503 33.4188 9.56061 32.9291 9.56061 32.327V11.673C9.56061 11.071 10.0503 10.5812 10.6524 10.5812H12.6206C13.2226 10.5812 13.7124 11.071 13.7124 11.673V32.327ZM15.272 23.8987V19.747H28.7274V23.8987H15.272ZM34.4388 32.327C34.4388 32.9291 33.949 33.4188 33.347 33.4188H31.3788C30.7767 33.4188 30.287 32.9291 30.287 32.327V11.673C30.287 11.071 30.7767 10.5812 31.3788 10.5812H33.347C33.949 10.5812 34.4388 11.071 34.4388 11.673V32.327ZM38.875 27.8702C38.875 28.4722 38.3853 28.9619 37.7833 28.9619H35.9984V14.204H37.7833C38.3853 14.204 38.875 14.6937 38.875 15.2957V27.8702ZM42.4404 22.797C42.4404 23.399 41.9906 23.8887 41.4378 23.8887H40.4353V19.7576H41.4378C41.9906 19.7576 42.4404 20.2473 42.4404 20.8493V22.797Z" fill="white"/>
</svg>
