<svg width="39" height="37" viewBox="0 0 39 37" fill="none" xmlns="http://www.w3.org/2000/svg">
<path d="M19.3534 21.5033C23.8199 21.5033 27.4543 17.8695 27.4543 13.4037C27.4543 8.93782 23.8199 5.30408 19.3534 5.30408C14.8882 5.30408 11.2538 8.93782 11.2538 13.4037C11.2538 17.8695 14.8882 21.5033 19.3534 21.5033ZM19.3534 7.59982C22.5535 7.59982 25.1579 10.2029 25.1579 13.403C25.1579 16.6031 22.5542 19.2062 19.3534 19.2062C16.1546 19.2062 13.5502 16.6031 13.5502 13.403C13.5502 10.2029 16.1546 7.59982 19.3534 7.59982Z" fill="white"/>
<path d="M8.07798 29.1847L11.1977 36.696L18.68 26.7722C18.9042 26.7836 19.1258 26.8066 19.3527 26.8066C19.6215 26.8066 19.8843 26.7816 20.151 26.7661L27.6401 36.696L30.7585 29.1847L38.8385 28.252L31.6507 18.7205C32.3605 17.0887 32.7577 15.2914 32.7577 13.403C32.7577 6.01255 26.7451 0 19.3534 0C11.9636 0 5.95042 6.01188 5.95042 13.403C5.95042 15.3333 6.3685 17.165 7.10606 18.8245L0 28.252L8.07798 29.1847ZM34.5881 26.4304L29.1543 27.0585L27.0572 32.11L22.7224 26.3601C25.9042 25.5321 28.635 23.5754 30.4383 20.9271L34.5881 26.4304ZM19.3534 2.29709C25.4781 2.29709 30.4606 7.27963 30.4606 13.4036C30.4606 19.527 25.4781 24.5095 19.3534 24.5095C13.2301 24.5095 8.24616 19.527 8.24616 13.4036C8.24616 7.27963 13.2294 2.29709 19.3534 2.29709ZM8.33396 21.0136C10.1569 23.6463 12.9011 25.5861 16.0931 26.3878L11.7793 32.11L9.68074 27.0585L4.24837 26.4304L8.33396 21.0136Z" fill="white"/>
</svg>
