<svg width="40" height="40" viewBox="0 0 40 40" fill="none" xmlns="http://www.w3.org/2000/svg">
<path d="M33.75 7.5H32.275C31.75 6.05 30.375 5 28.75 5H11.25C9.625 5 8.25 6.05 7.725 7.5H6.25C4.1875 7.5 2.5 9.1875 2.5 11.25V12.8625C2.5 15.4375 4.0375 17.7125 6.425 18.6625L9.5375 19.9C10.725 21.85 12.3875 23.5125 14.425 24.675L15.825 25.475C16.0875 25.625 16.25 25.9 16.25 26.2C16.25 26.5125 16.075 26.8 15.7875 26.95L13.325 28.1875C12.05 28.825 11.25 30.1125 11.25 31.55V35C11.25 35.6875 11.8125 36.25 12.5 36.25H27.5C28.1875 36.25 28.75 35.6875 28.75 35V31.55C28.75 30.125 27.95 28.8375 26.675 28.2L24.2125 26.9625C23.925 26.825 23.75 26.5375 23.75 26.2125C23.75 25.9125 23.9125 25.6375 24.175 25.4875L25.575 24.6875C27.6125 23.525 29.275 21.8625 30.4625 19.9125L33.575 18.675C35.9625 17.725 37.5 15.4375 37.5 12.875V11.25C37.5 9.1875 35.8125 7.5 33.75 7.5ZM7.3625 16.35C5.925 15.775 5 14.4125 5 12.8625V11.25C5 10.5625 5.5625 10 6.25 10H7.5V12.75C7.5 14.0875 7.7125 15.3875 8.0875 16.6375L7.3625 16.35ZM24.325 22.5125L22.925 23.3125C21.9 23.9125 21.25 25.0125 21.25 26.2125C21.25 27.4875 21.9625 28.625 23.1 29.2L25.5625 30.4375C25.9875 30.65 26.25 31.075 26.25 31.55V33.75H13.75V31.55C13.75 31.075 14.0125 30.65 14.4375 30.4375L16.9 29.2C18.0375 28.625 18.75 27.4875 18.75 26.2125C18.75 25.0125 18.1 23.9125 17.075 23.3125L15.675 22.5125C12.175 20.5125 10 16.775 10 12.75V8.75C10 8.0625 10.5625 7.5 11.25 7.5H28.75C29.4375 7.5 30 8.0625 30 8.75V12.75C30 16.775 27.825 20.5125 24.325 22.5125ZM35 12.8625C35 14.4 34.075 15.775 32.6375 16.35L31.9125 16.6375C32.2875 15.3875 32.5 14.0875 32.5 12.75V10H33.75C34.4375 10 35 10.5625 35 11.25V12.8625Z" fill="#420B15"/>
</svg>
