<svg width="29" height="27" viewBox="0 0 29 27" fill="none" xmlns="http://www.w3.org/2000/svg">
<path d="M26.3672 11.4281H16.1133V1.8285C16.1133 0.822824 15.2344 0 14.1602 0C13.0859 0 12.207 0.822824 12.207 1.8285V11.4281H1.95312C0.878906 11.4281 0 12.2509 0 13.2566C0 14.2623 0.878906 15.0851 1.95312 15.0851H12.207V24.6847C12.207 25.6904 13.0859 26.5132 14.1602 26.5132C15.2344 26.5132 16.1133 25.6904 16.1133 24.6847V15.0851H26.3672C27.4414 15.0851 28.3203 14.2623 28.3203 13.2566C28.3203 12.2509 27.4414 11.4281 26.3672 11.4281Z" fill="white"/>
</svg>
