<svg width="50" height="50" viewBox="0 0 50 50" fill="none" xmlns="http://www.w3.org/2000/svg">
<g clip-path="url(#clip0_200_1922)">
<path fill-rule="evenodd" clip-rule="evenodd" d="M49.5 14.9312C49.5 14.9312 49.0109 11.4613 47.5125 9.93359C45.6109 7.92734 43.4797 7.91797 42.5031 7.80156C35.5062 7.29179 25.0109 7.29179 25.0109 7.29179H24.9891C24.9891 7.29179 14.4937 7.29179 7.49687 7.80156C6.51875 7.91797 4.38906 7.92734 2.48594 9.93359C0.9875 11.4617 0.5 14.9312 0.5 14.9312C0.5 14.9312 0 19.007 0 23.0809V26.9016C0 30.9769 0.5 35.0512 0.5 35.0512C0.5 35.0512 0.9875 38.5211 2.48594 40.0488C4.38906 42.0551 6.8875 41.9922 8 42.2016C12 42.5887 25 42.7082 25 42.7082C25 42.7082 35.5062 42.6926 42.5031 42.1828C43.4797 42.0648 45.6109 42.0555 47.5125 40.0492C49.0109 38.5211 49.5 35.0516 49.5 35.0516C49.5 35.0516 50 30.9773 50 26.9016V23.0809C50 19.007 49.5 14.9312 49.5 14.9312ZM19.8375 31.5312L19.8359 17.3832L33.3453 24.4816L19.8375 31.5312Z" fill="#CE1312"/>
</g>
<defs>
<clipPath id="clip0_200_1922">
<rect width="50" height="50" fill="white"/>
</clipPath>
</defs>
</svg>
